<svg xmlns="http://www.w3.org/2000/svg" viewBox="0 0 512 512" style="background:#0f766e;border-radius:20%">
  <path d="M416 192c0-88.4-71.6-160-160-160S96 103.6 96 192c0 98.4 105.7 253.4 148.3 309.4l11.7 15.4 11.7-15.4C310.3 445.4 416 290.4 416 192zM256 240c-26.5 0-48-21.5-48-48s21.5-48 48-48 48 21.5 48 48-21.5 48-48 48z" fill="white"/>
  <path d="M352 160l-32 0 0-32c0-17.7-14.3-32-32-32l-64 0c-17.7 0-32 14.3-32 32l0 32-32 0c-17.7 0-32 14.3-32 32l0 192c0 17.7 14.3 32 32 32l192 0c17.7 0 32-14.3 32-32l0-192c0-17.7-14.3-32-32-32z" fill="#f59e0b" transform="translate(40, 40) scale(0.8)"/>
</svg>